<svg xmlns="http://www.w3.org/2000/svg" width="30" height="30" viewBox="0 0 30 30">
    <defs>
        <style>
            .cls-1{fill:#6b7889}.cls-2{fill:none}
        </style>
    </defs>
    <g id="ic-datafood-30px" transform="translate(-442 -695)">
        <g id="그룹_2933" data-name="그룹 2933" transform="translate(446.002 699)">
            <path id="제외_1" d="M13.355 18h-8.71a1.894 1.894 0 0 1-1.816-1.338L.085 7.851a1.909 1.909 0 0 1 .668-2.082L7.851.386a1.9 1.9 0 0 1 2.3 0l7.1 5.383a1.909 1.909 0 0 1 .668 2.082l-2.744 8.811A1.894 1.894 0 0 1 13.355 18zM8.994 4.57a.941.941 0 0 0-.529.162L4.442 7.457a.913.913 0 0 0-.138 1.4l2.52 2.543a.932.932 0 0 0 .466.255l4.011.876a.946.946 0 0 0 .2.022.935.935 0 0 0 .824-.487l1.737-3.194a.915.915 0 0 0-.286-1.19L9.531 4.738a.942.942 0 0 0-.537-.168z" class="cls-1" data-name="제외 1" transform="translate(1.998 2)"/>
        </g>
        <path id="사각형_2788" d="M0 0h30v30H0z" class="cls-2" data-name="사각형 2788" transform="translate(442 695)"/>
    </g>
</svg>
